<svg width="275" height="59" viewBox="0 0 275 59" fill="none" xmlns="http://www.w3.org/2000/svg">
<path d="M0 38V0.239998H1.92V38H0ZM3.84 38V0.239998H9.6V38H3.84ZM11.52 38V0.239998H13.44V38H11.52ZM15.36 38V0.239998H21.12V38H15.36ZM26.88 38V0.239998H28.8V38H26.88ZM15.296 58.672C13.376 58.672 11.8187 58.032 10.624 56.752L11.52 55.28L11.584 55.088L11.776 55.152C11.776 55.1947 11.7973 55.28 11.84 55.408C11.84 55.4933 11.8827 55.6 11.968 55.728C12.0107 55.8133 12.096 55.8987 12.224 55.984C13.12 56.752 14.2293 57.136 15.552 57.136C16.4053 57.136 17.1307 56.9013 17.728 56.432C18.3253 55.92 18.624 55.3227 18.624 54.64C18.624 54.1707 18.5173 53.7653 18.304 53.424C18.1333 53.1253 17.8133 52.8267 17.344 52.528C16.8747 52.2293 16.1493 51.8667 15.168 51.44C13.7173 50.8853 12.672 50.2453 12.032 49.52C11.4347 48.7947 11.136 47.984 11.136 47.088C11.136 45.9787 11.5413 45.0827 12.352 44.4C13.1627 43.7173 14.2507 43.376 15.616 43.376C16.4267 43.376 17.1947 43.5467 17.92 43.888C18.6027 44.2293 19.2213 44.6773 19.776 45.232L18.688 46.704L18.56 46.576C18.56 46.5333 18.5387 46.4693 18.496 46.384C18.496 46.256 18.4533 46.1493 18.368 46.064C18.3253 45.936 18.24 45.8293 18.112 45.744C17.7707 45.4027 17.3653 45.1467 16.896 44.976C16.4693 44.848 15.9573 44.784 15.36 44.784C14.592 44.784 13.9947 44.9973 13.568 45.424C13.0987 45.8507 12.864 46.3627 12.864 46.96C12.864 47.4293 12.9493 47.8347 13.12 48.176C13.3333 48.5173 13.696 48.8373 14.208 49.136C14.72 49.4773 15.488 49.84 16.512 50.224C17.92 50.8213 18.9013 51.4187 19.456 52.016C19.968 52.656 20.224 53.4453 20.224 54.384C20.224 55.1093 20.0533 55.792 19.712 56.432C19.328 57.072 18.7733 57.6053 18.048 58.032C17.28 58.4587 16.3627 58.672 15.296 58.672ZM30.75 38V0.239998H32.67V38H30.75ZM34.59 38V0.239998H36.51V38H34.59ZM38.43 38V0.239998H44.19V38H38.43ZM46.11 38V0.239998H51.87V38H46.11ZM57.63 38V0.239998H59.55V38H57.63ZM45.086 45.04H40.926V43.568H51.166V45.04H46.814V58.416H45.086V45.04ZM61.5 38V0.239998H67.26V38H61.5ZM73.02 38V0.239998H74.94V38H73.02ZM76.86 38V0.239998H78.78V38H76.86ZM80.7 38V0.239998H82.62V38H80.7ZM84.54 38V0.239998H90.3V38H84.54ZM76.86 58.672C75.324 58.672 74.1507 58.2027 73.34 57.264C72.5293 56.3253 72.124 55.0027 72.124 53.296V43.568H73.98V43.76C73.852 43.8453 73.788 43.952 73.788 44.08C73.7453 44.1653 73.724 44.3573 73.724 44.656V53.296C73.724 54.576 73.98 55.5573 74.492 56.24C74.9613 56.9227 75.772 57.264 76.924 57.264C78.0333 57.264 78.844 56.9227 79.356 56.24C79.868 55.5573 80.124 54.5547 80.124 53.232V43.568H81.724V53.232C81.724 55.0667 81.2973 56.432 80.444 57.328C79.5907 58.224 78.396 58.672 76.86 58.672ZM92.25 38V0.239998H94.17V38H92.25ZM96.09 38V0.239998H98.01V38H96.09ZM99.93 38V0.239998H105.69V38H99.93ZM111.45 38V0.239998H113.37V38H111.45ZM115.29 38V0.239998H121.05V38H115.29ZM102.938 43.568H106.394C107.631 43.568 108.591 43.7387 109.274 44.08C109.999 44.4213 110.618 44.9333 111.13 45.616C112.111 46.896 112.602 48.7093 112.602 51.056C112.517 53.488 111.962 55.3227 110.938 56.56C109.914 57.84 108.314 58.4587 106.138 58.416H102.938V43.568ZM106.01 57.136C109.295 57.136 110.938 55.152 110.938 51.184C110.938 49.1787 110.575 47.6427 109.85 46.576C109.082 45.5093 107.887 44.976 106.266 44.976H104.538V57.136H106.01ZM123 38V0.239998H124.92V38H123ZM126.84 38V0.239998H132.6V38H126.84ZM134.52 38V0.239998H136.44V38H134.52ZM142.2 38V0.239998H147.96V38H142.2ZM149.88 38V0.239998H151.8V38H149.88ZM134.328 57.008H137.272V44.976H134.52V43.568H141.88V44.976H138.936V57.008H142.008V58.416H134.328V57.008ZM153.75 38V0.239998H159.51V38H153.75ZM161.43 38V0.239998H163.35V38H161.43ZM165.27 38V0.239998H171.03V38H165.27ZM172.95 38V0.239998H174.87V38H172.95ZM180.63 38V0.239998H182.55V38H180.63ZM169.11 58.672C167.403 58.672 166.102 58.0107 165.206 56.688C164.267 55.3653 163.798 53.488 163.798 51.056C163.798 48.7093 164.267 46.8533 165.206 45.488C166.145 44.1653 167.446 43.504 169.11 43.504C170.774 43.504 172.075 44.1653 173.014 45.488C173.953 46.8533 174.422 48.7093 174.422 51.056C174.422 53.488 173.953 55.3653 173.014 56.688C172.118 58.0107 170.817 58.672 169.11 58.672ZM169.11 57.2C170.262 57.2 171.137 56.688 171.734 55.664C172.374 54.5973 172.694 53.0613 172.694 51.056C172.694 49.1787 172.374 47.6853 171.734 46.576C171.094 45.5093 170.219 44.976 169.11 44.976C168.001 44.976 167.126 45.5093 166.486 46.576C165.846 47.6853 165.526 49.1787 165.526 51.056C165.526 53.0613 165.825 54.5973 166.422 55.664C167.062 56.688 167.958 57.2 169.11 57.2ZM184.5 38V0.239998H186.42V38H184.5ZM192.18 38V0.239998H197.94V38H192.18ZM199.86 38V0.239998H201.78V38H199.86ZM203.7 38V0.239998H209.46V38H203.7ZM211.38 38V0.239998H213.3V38H211.38ZM215.25 38V0.239998H217.17V38H215.25ZM219.09 38V0.239998H224.85V38H219.09ZM230.61 38V0.239998H232.53V38H230.61ZM234.45 38V0.239998H236.37V38H234.45ZM238.29 38V0.239998H244.05V38H238.29ZM226.386 57.072L228.306 55.152C229.586 53.872 230.546 52.848 231.186 52.08C231.826 51.3547 232.338 50.6293 232.722 49.904C233.106 49.2213 233.298 48.4747 233.298 47.664C233.298 46.7253 233.085 46.0427 232.658 45.616C232.189 45.1893 231.57 44.976 230.802 44.976C229.607 44.976 228.605 45.4667 227.794 46.448C227.623 46.704 227.538 46.9173 227.538 47.088C227.538 47.216 227.538 47.3013 227.538 47.344L227.41 47.472L227.282 47.344L226.066 46.384C226.535 45.4453 227.175 44.7413 227.986 44.272C228.797 43.76 229.735 43.504 230.802 43.504C232.039 43.504 233.063 43.888 233.874 44.656C234.642 45.424 235.026 46.448 235.026 47.728C235.026 48.5813 234.813 49.4133 234.386 50.224C234.002 51.0347 233.49 51.8027 232.85 52.528C232.21 53.2533 231.314 54.192 230.162 55.344L228.562 56.944H234.066C234.322 56.944 234.514 56.944 234.642 56.944C234.727 56.9013 234.834 56.8373 234.962 56.752H235.09V58.416H226.386V57.072ZM246 38V0.239998H247.92V38H246ZM249.84 38V0.239998H251.76V38H249.84ZM257.52 38V0.239998H259.44V38H257.52ZM261.36 38V0.239998H267.12V38H261.36ZM269.04 38V0.239998H274.8V38H269.04ZM259.12 58.416C260.485 53.8933 261.979 49.4773 263.6 45.168H257.264V43.568H265.712V44.528C263.749 49.4347 262.171 54.064 260.976 58.416H259.12Z" fill="white"/>
</svg>
