<svg width="276" height="59" viewBox="0 0 276 59" fill="none" xmlns="http://www.w3.org/2000/svg">
<path d="M0.625 38V0.239998H2.545V38H0.625ZM4.465 38V0.239998H10.225V38H4.465ZM12.145 38V0.239998H14.065V38H12.145ZM15.985 38V0.239998H21.745V38H15.985ZM27.505 38V0.239998H29.425V38H27.505ZM15.921 58.672C14.001 58.672 12.4437 58.032 11.249 56.752L12.145 55.28L12.209 55.088L12.401 55.152C12.401 55.1947 12.4223 55.28 12.465 55.408C12.465 55.4933 12.5077 55.6 12.593 55.728C12.6357 55.8133 12.721 55.8987 12.849 55.984C13.745 56.752 14.8543 57.136 16.177 57.136C17.0303 57.136 17.7557 56.9013 18.353 56.432C18.9503 55.92 19.249 55.3227 19.249 54.64C19.249 54.1707 19.1423 53.7653 18.929 53.424C18.7583 53.1253 18.4383 52.8267 17.969 52.528C17.4997 52.2293 16.7743 51.8667 15.793 51.44C14.3423 50.8853 13.297 50.2453 12.657 49.52C12.0597 48.7947 11.761 47.984 11.761 47.088C11.761 45.9787 12.1663 45.0827 12.977 44.4C13.7877 43.7173 14.8757 43.376 16.241 43.376C17.0517 43.376 17.8197 43.5467 18.545 43.888C19.2277 44.2293 19.8463 44.6773 20.401 45.232L19.313 46.704L19.185 46.576C19.185 46.5333 19.1637 46.4693 19.121 46.384C19.121 46.256 19.0783 46.1493 18.993 46.064C18.9503 45.936 18.865 45.8293 18.737 45.744C18.3957 45.4027 17.9903 45.1467 17.521 44.976C17.0943 44.848 16.5823 44.784 15.985 44.784C15.217 44.784 14.6197 44.9973 14.193 45.424C13.7237 45.8507 13.489 46.3627 13.489 46.96C13.489 47.4293 13.5743 47.8347 13.745 48.176C13.9583 48.5173 14.321 48.8373 14.833 49.136C15.345 49.4773 16.113 49.84 17.137 50.224C18.545 50.8213 19.5263 51.4187 20.081 52.016C20.593 52.656 20.849 53.4453 20.849 54.384C20.849 55.1093 20.6783 55.792 20.337 56.432C19.953 57.072 19.3983 57.6053 18.673 58.032C17.905 58.4587 16.9877 58.672 15.921 58.672ZM31.375 38V0.239998H33.295V38H31.375ZM35.215 38V0.239998H37.135V38H35.215ZM39.055 38V0.239998H44.815V38H39.055ZM46.735 38V0.239998H52.495V38H46.735ZM58.255 38V0.239998H60.175V38H58.255ZM45.711 45.04H41.551V43.568H51.791V45.04H47.439V58.416H45.711V45.04ZM62.125 38V0.239998H67.885V38H62.125ZM73.645 38V0.239998H75.565V38H73.645ZM77.485 38V0.239998H79.405V38H77.485ZM81.325 38V0.239998H83.245V38H81.325ZM85.165 38V0.239998H90.925V38H85.165ZM77.485 58.672C75.949 58.672 74.7757 58.2027 73.965 57.264C73.1543 56.3253 72.749 55.0027 72.749 53.296V43.568H74.605V43.76C74.477 43.8453 74.413 43.952 74.413 44.08C74.3703 44.1653 74.349 44.3573 74.349 44.656V53.296C74.349 54.576 74.605 55.5573 75.117 56.24C75.5863 56.9227 76.397 57.264 77.549 57.264C78.6583 57.264 79.469 56.9227 79.981 56.24C80.493 55.5573 80.749 54.5547 80.749 53.232V43.568H82.349V53.232C82.349 55.0667 81.9223 56.432 81.069 57.328C80.2157 58.224 79.021 58.672 77.485 58.672ZM92.875 38V0.239998H94.795V38H92.875ZM96.715 38V0.239998H98.635V38H96.715ZM100.555 38V0.239998H106.315V38H100.555ZM112.075 38V0.239998H113.995V38H112.075ZM115.915 38V0.239998H121.675V38H115.915ZM103.563 43.568H107.019C108.256 43.568 109.216 43.7387 109.899 44.08C110.624 44.4213 111.243 44.9333 111.755 45.616C112.736 46.896 113.227 48.7093 113.227 51.056C113.142 53.488 112.587 55.3227 111.563 56.56C110.539 57.84 108.939 58.4587 106.763 58.416H103.563V43.568ZM106.635 57.136C109.92 57.136 111.563 55.152 111.563 51.184C111.563 49.1787 111.2 47.6427 110.475 46.576C109.707 45.5093 108.512 44.976 106.891 44.976H105.163V57.136H106.635ZM123.625 38V0.239998H125.545V38H123.625ZM127.465 38V0.239998H133.225V38H127.465ZM135.145 38V0.239998H137.065V38H135.145ZM142.825 38V0.239998H148.585V38H142.825ZM150.505 38V0.239998H152.425V38H150.505ZM134.953 57.008H137.897V44.976H135.145V43.568H142.505V44.976H139.561V57.008H142.633V58.416H134.953V57.008ZM154.375 38V0.239998H160.135V38H154.375ZM162.055 38V0.239998H163.975V38H162.055ZM165.895 38V0.239998H171.655V38H165.895ZM173.575 38V0.239998H175.495V38H173.575ZM181.255 38V0.239998H183.175V38H181.255ZM169.735 58.672C168.028 58.672 166.727 58.0107 165.831 56.688C164.892 55.3653 164.423 53.488 164.423 51.056C164.423 48.7093 164.892 46.8533 165.831 45.488C166.77 44.1653 168.071 43.504 169.735 43.504C171.399 43.504 172.7 44.1653 173.639 45.488C174.578 46.8533 175.047 48.7093 175.047 51.056C175.047 53.488 174.578 55.3653 173.639 56.688C172.743 58.0107 171.442 58.672 169.735 58.672ZM169.735 57.2C170.887 57.2 171.762 56.688 172.359 55.664C172.999 54.5973 173.319 53.0613 173.319 51.056C173.319 49.1787 172.999 47.6853 172.359 46.576C171.719 45.5093 170.844 44.976 169.735 44.976C168.626 44.976 167.751 45.5093 167.111 46.576C166.471 47.6853 166.151 49.1787 166.151 51.056C166.151 53.0613 166.45 54.5973 167.047 55.664C167.687 56.688 168.583 57.2 169.735 57.2ZM185.125 38V0.239998H187.045V38H185.125ZM192.805 38V0.239998H198.565V38H192.805ZM200.485 38V0.239998H202.405V38H200.485ZM204.325 38V0.239998H210.085V38H204.325ZM212.005 38V0.239998H213.925V38H212.005ZM215.875 38V0.239998H217.795V38H215.875ZM219.715 38V0.239998H225.475V38H219.715ZM231.235 38V0.239998H233.155V38H231.235ZM235.075 38V0.239998H236.995V38H235.075ZM238.915 38V0.239998H244.675V38H238.915ZM227.011 57.072L228.931 55.152C230.211 53.872 231.171 52.848 231.811 52.08C232.451 51.3547 232.963 50.6293 233.347 49.904C233.731 49.2213 233.923 48.4747 233.923 47.664C233.923 46.7253 233.71 46.0427 233.283 45.616C232.814 45.1893 232.195 44.976 231.427 44.976C230.232 44.976 229.23 45.4667 228.419 46.448C228.248 46.704 228.163 46.9173 228.163 47.088C228.163 47.216 228.163 47.3013 228.163 47.344L228.035 47.472L227.907 47.344L226.691 46.384C227.16 45.4453 227.8 44.7413 228.611 44.272C229.422 43.76 230.36 43.504 231.427 43.504C232.664 43.504 233.688 43.888 234.499 44.656C235.267 45.424 235.651 46.448 235.651 47.728C235.651 48.5813 235.438 49.4133 235.011 50.224C234.627 51.0347 234.115 51.8027 233.475 52.528C232.835 53.2533 231.939 54.192 230.787 55.344L229.187 56.944H234.691C234.947 56.944 235.139 56.944 235.267 56.944C235.352 56.9013 235.459 56.8373 235.587 56.752H235.715V58.416H227.011V57.072ZM246.625 38V0.239998H248.545V38H246.625ZM250.465 38V0.239998H252.385V38H250.465ZM258.145 38V0.239998H260.065V38H258.145ZM261.985 38V0.239998H267.745V38H261.985ZM269.665 38V0.239998H275.425V38H269.665ZM259.745 58.416C261.11 53.8933 262.604 49.4773 264.225 45.168H257.889V43.568H266.337V44.528C264.374 49.4347 262.796 54.064 261.601 58.416H259.745Z" fill="black"/>
</svg>
